<?xml version="1.0" encoding="utf-8"?>
<!-- Generator: Adobe Illustrator 24.2.3, SVG Export Plug-In . SVG Version: 6.00 Build 0)  -->
<svg version="1.1" id="Layer_1" xmlns="http://www.w3.org/2000/svg" xmlns:xlink="http://www.w3.org/1999/xlink" x="0px" y="0px"
	 viewBox="0 0 720 720" style="enable-background:new 0 0 720 720;" xml:space="preserve">
<style type="text/css">
	.st0{fill:#00588D;}
	.st1{fill:#FFFFFF;}
</style>
<rect class="st0" width="720" height="720"/>
<path class="st1" d="M373.5,422.4v-48.9h23.2c12.8,0,23.2-10,23.9-22.6h-48.3c-1.5,9.2-9.5,16.2-19.1,16.2
	c-10.7,0-19.4-8.7-19.4-19.4c0-10.7,8.7-19.4,19.4-19.4c9.6,0,17.6,7,19.1,16.2h48.2c-1.4-12-11.5-21.3-23.9-21.3h-23.2v-48.9
	c0-10.4,4.4-19.7,11.5-26.3c-28.5-33.9-71.2-55.5-118.9-55.5c-85.7,0-155.2,69.5-155.2,155.2c0,85.7,69.5,155.2,155.2,155.2
	c47.4,0,89.9-21.3,118.3-54.8C377.7,441.6,373.5,432.5,373.5,422.4z M266.1,464.1c-64.3,0-116.4-52.1-116.4-116.4
	s52.1-116.4,116.4-116.4c37.1,0,70.1,17.4,91.4,44.4l-41.7,41.7c-10.2-16.7-28.7-27.9-49.7-27.9c-32.2,0-58.2,26.1-58.2,58.2
	s26.1,58.2,58.2,58.2c21,0,39.5-11.2,49.7-27.9l41.7,41.7C336.2,446.7,303.2,464.1,266.1,464.1z"/>
<g>
	<path class="st1" d="M604.8,317.2h-17.3v-43c0-16.5-13.4-29.9-29.9-29.9h-43V227c0-16.5-13.4-29.9-29.9-29.9h-2.3
		c-16.5,0-29.9,13.4-29.9,29.9v17.3h-43c-16.5,0-29.9,13.4-29.9,29.9v43h17.3c16.5,0,29.9,13.4,29.9,29.9v2.3
		c0,16.5-13.4,29.9-29.9,29.9h-17.3v43c0,16.5,13.4,29.9,29.9,29.9h43V435c0-16.5,13.4-29.9,29.9-29.9h2.3
		c16.5,0,29.9,13.4,29.9,29.9v17.3h43c16.5,0,29.9-13.4,29.9-29.9v-43h17.3c16.5,0,29.9-13.4,29.9-29.9v-2.3
		C634.7,330.6,621.3,317.2,604.8,317.2z"/>
</g>
</svg>
